<svg data-name="Layer 1" xmlns="http://www.w3.org/2000/svg" viewBox="0 0 26 31"><path d="M12.64 15.27a2.52 2.52 0 0 0-.61.06v3.85a2.23 2.23 0 0 0 .47 0 1.83 1.83 0 0 0 2-2.07 1.69 1.69 0 0 0-1.86-1.84zM8.53 16.12c0-.54-.38-.86-1-.86a2.18 2.18 0 0 0-.56.05v1.74a1.94 1.94 0 0 0 .45 0c.67.03 1.11-.33 1.11-.93z" fill="#c7c7c7"/><path d="M17.8 1.44A2.71 2.71 0 0 0 15.53.5h-13c-1.43 0-2 .56-2 2v26c0 1.43.56 2 2 2h21c1.43 0 2-.56 2-2v-18a2.7 2.7 0 0 0-.94-2.27zm6 26.78c0 .39-.15.54-.54.54H2.78c-.39 0-.54-.15-.54-.54v-6.45h21.52zm-18.15-8v-5.85a11 11 0 0 1 1.81-.12 2.87 2.87 0 0 1 1.8.47 1.75 1.75 0 0 1 .63 1.37 1.91 1.91 0 0 1-.55 1.4 2.75 2.75 0 0 1-1.91.62 3 3 0 0 1-.46 0v2.11zm5.09 0v-5.85a11.59 11.59 0 0 1 1.8-.12 3.77 3.77 0 0 1 2.41.63 2.61 2.61 0 0 1 1 2.22 3 3 0 0 1-1 2.39 4.21 4.21 0 0 1-2.72.76 10.37 10.37 0 0 1-1.53-.09zm9.54-3.43v1.09h-2.16v2.37h-1.34v-5.9h3.61v1.1h-2.27v1.34zm3.52-4H2.24v-10c0-.39.15-.54.54-.54h13.28c.19 0 .26.08.26.27v5.16c0 1.43.57 2 2 2h5.17c.19 0 .27.07.27.26z" fill="#c7c7c7"/></svg>
